<?xml version="1.0" standalone="no"?><!DOCTYPE svg PUBLIC "-//W3C//DTD SVG 1.1//EN" "http://www.w3.org/Graphics/SVG/1.1/DTD/svg11.dtd"><svg t="1553734285732" class="icon" style="" viewBox="0 0 1024 1024" version="1.1" xmlns="http://www.w3.org/2000/svg" p-id="2181" xmlns:xlink="http://www.w3.org/1999/xlink" width="128" height="128"><defs><style type="text/css"></style></defs><path d="M958.4 755.2c0-30.4-25.6-54.4-59.2-59.2-1.6-22.4-22.4-41.6-51.2-41.6-27.2 0-51.2 19.2-51.2 43.2 0 14.4 9.6 27.2 22.4 35.2-81.6-17.6-196.8-27.2-324.8-27.2-89.6 0-172.8 4.8-243.2 14.4-3.2-32-33.6-56-72-56-36.8 0-67.2 22.4-72 52.8-17.6 6.4-30.4 20.8-30.4 38.4v6.4c-19.2 9.6-30.4 20.8-30.4 32 0 48 200 88 446.4 88 244.8 0 443.2-38.4 446.4-86.4 12.8-11.2 19.2-25.6 19.2-40" fill="#755E49" p-id="2182"></path><path d="M875.2 777.6c0 24-163.2 41.6-363.2 41.6S148.8 801.6 148.8 777.6 310.4 736 512 736c200 0 363.2 19.2 363.2 41.6" fill="#8FCEC0" p-id="2183"></path><path d="M308.8 710.4s68.8-22.4 94.4-38.4c25.6-17.6 57.6-16 107.2-11.2 49.6 4.8 43.2 83.2 43.2 83.2l-168 11.2-76.8-44.8z" fill="#8FCEC0" p-id="2184"></path><path d="M233.6 347.2c-9.6-1.6-20.8 3.2-22.4 12.8h-1.6c-4.8 0-9.6 3.2-9.6 9.6-9.6 0-12.8 9.6-9.6 17.6h44.8c-1.6 0-1.6-40-1.6-40z" fill="#D3D3D3" p-id="2185"></path><path d="M270.4 368c-1.6-8-9.6-11.2-17.6-9.6-1.6 0-3.2 1.6-4.8 1.6 3.2-9.6-3.2-20.8-12.8-24s-20.8 3.2-24 12.8c-1.6 3.2-1.6 8 0 11.2h-1.6c-4.8 0-9.6 3.2-9.6 9.6-9.6 0-12.8 9.6-9.6 17.6h94.4c-1.6 0 1.6-19.2-14.4-19.2m204.8-68.8c1.6-3.2 4.8-6.4 8-6.4 1.6 0 4.8 0 6.4 1.6 1.6-4.8 6.4-9.6 12.8-9.6s11.2 3.2 12.8 9.6c3.2 0 6.4 3.2 6.4 6.4 6.4 0 8 6.4 6.4 11.2h-62.4s-1.6-12.8 9.6-12.8" fill="#E4EEF2" p-id="2186"></path><path d="M499.2 284.8c-4.8 1.6-8 4.8-9.6 9.6-1.6-1.6-3.2-1.6-6.4-1.6-4.8 0-8 3.2-8 6.4-11.2 0-9.6 12.8-9.6 12.8h33.6v-27.2zM686.4 337.6c-1.6-3.2-4.8-6.4-8-4.8-1.6 0-1.6 0-1.6 1.6-1.6-4.8-4.8-8-9.6-8s-8 3.2-9.6 6.4c-3.2 0-4.8 1.6-4.8 4.8-4.8 0-6.4 4.8-4.8 9.6h46.4c-1.6 0 0-9.6-8-9.6" fill="#E4EEF2" p-id="2187"></path><path d="M667.2 326.4c-6.4 0-9.6 3.2-11.2 6.4-3.2 0-4.8 1.6-4.8 4.8-4.8 0-6.4 4.8-4.8 9.6h20.8v-20.8zM649.6 256c1.6-4.8 6.4-6.4 9.6-4.8 1.6 0 1.6 0 3.2 1.6 1.6-6.4 8-9.6 12.8-8 3.2 1.6 6.4 3.2 8 8 3.2 0 4.8 1.6 6.4 4.8 4.8 0 8 6.4 4.8 9.6h-52.8s-1.6-11.2 8-11.2m248 152c-1.6-4.8-4.8-8-9.6-8-3.2 0-4.8 1.6-6.4 1.6-1.6-8-9.6-12.8-19.2-11.2-4.8 1.6-9.6 4.8-11.2 9.6-4.8 0-8 3.2-8 6.4-8 0-9.6 8-8 14.4h72c0 3.2 3.2-12.8-9.6-12.8" fill="#E4EEF2" p-id="2188"></path><path d="M868.8 392h-1.6c-6.4 0-12.8 4.8-14.4 11.2-3.2 0-8 3.2-8 6.4-8 0-9.6 8-8 14.4h32v-32zM896 542.4c1.6-8 9.6-11.2 17.6-9.6 1.6 0 3.2 1.6 4.8 1.6-3.2-9.6 1.6-20.8 12.8-24 9.6-3.2 20.8 1.6 24 12.8 1.6 3.2 1.6 8 0 11.2h1.6c4.8 0 9.6 3.2 9.6 9.6 9.6 0 12.8 9.6 9.6 17.6h-92.8s-3.2-19.2 12.8-19.2" fill="#E4EEF2" p-id="2189"></path><path d="M934.4 521.6c-8 1.6-14.4 6.4-16 14.4-3.2-1.6-4.8-3.2-8-3.2-6.4 0-11.2 4.8-12.8 9.6-16 0-12.8 19.2-12.8 19.2h51.2v-40zM144 524.8c1.6-6.4 8-9.6 12.8-8 1.6 0 3.2 1.6 3.2 1.6 1.6-8 11.2-12.8 19.2-11.2 4.8 1.6 9.6 4.8 11.2 9.6 4.8 0 8 3.2 8 6.4 8 0 9.6 8 8 14.4H134.4c0 3.2-3.2-12.8 9.6-12.8" fill="#E4EEF2" p-id="2190"></path><path d="M174.4 508.8c-6.4 1.6-11.2 4.8-12.8 11.2-4.8-3.2-11.2-3.2-16 1.6-1.6 1.6-1.6 1.6-1.6 3.2-12.8 0-11.2 14.4-11.2 14.4h40c1.6 1.6 1.6-30.4 1.6-30.4z" fill="#E4EEF2" p-id="2191"></path><path d="M758.4 572.8c-6.4 1.6-11.2 4.8-12.8 11.2-4.8-3.2-11.2-3.2-16 1.6-1.6 1.6-1.6 1.6-1.6 3.2-12.8 0-11.2 14.4-11.2 14.4h40l1.6-30.4z" fill="#F1F0EF" p-id="2192"></path><path d="M376 192c0 27.2-22.4 48-49.6 48-25.6 0-46.4-20.8-48-48 0-27.2 22.4-48 48-48s49.6 20.8 49.6 48" fill="#FF9D00" p-id="2193"></path><path d="M726.4 625.6h9.6v3.2h-9.6v-3.2z m6.4 6.4h9.6v3.2h-9.6v-3.2z m0 6.4h9.6v3.2h-9.6v-3.2z m20.8 3.2h9.6v3.2h-9.6v-3.2z m-8 6.4h9.6v3.2h-9.6v-3.2z m-209.6-59.2h12.8v4.8h-12.8v-4.8z m8 8h12.8v4.8H544v-4.8z m-8 9.6h12.8v4.8h-12.8v-4.8z m27.2 4.8h12.8v4.8h-12.8v-4.8z m-9.6 6.4h12.8v6.4h-12.8v-6.4z m-6.4 28.8h12.8v4.8h-12.8v-4.8z" fill="#FFFFFF" p-id="2194"></path><path d="M443.2 580.8h-30.4v60.8H384v-60.8h-110.4v-19.2l104-155.2h35.2v152h30.4v22.4zM384 556.8v-99.2-24c-1.6 3.2-4.8 9.6-9.6 17.6L304 556.8h80z" fill="#1BBC9D" p-id="2195"></path><path d="M468.8 529.6c0-41.6 6.4-73.6 20.8-94.4 14.4-20.8 33.6-32 60.8-32 49.6 0 75.2 40 75.2 121.6 0 40-6.4 70.4-20.8 91.2-14.4 20.8-33.6 32-59.2 32-24 0-43.2-9.6-56-30.4-14.4-20.8-20.8-49.6-20.8-88z" fill="#E4EEF2" p-id="2196"></path><path d="M544 660.8c-28.8 0-51.2-12.8-67.2-36.8-14.4-22.4-22.4-54.4-22.4-96 0-44.8 8-78.4 22.4-102.4 16-25.6 41.6-38.4 72-38.4 41.6 0 89.6 24 89.6 136 0 43.2-8 76.8-24 99.2-16 25.6-40 38.4-70.4 38.4z m4.8-244.8c-20.8 0-36.8 8-48 25.6-12.8 19.2-19.2 48-19.2 86.4 0 35.2 6.4 62.4 17.6 80 11.2 16 24 24 43.2 24 20.8 0 35.2-8 48-25.6 12.8-19.2 19.2-46.4 19.2-83.2 0-107.2-44.8-107.2-60.8-107.2zM809.6 580.8h-30.4v60.8h-28.8v-60.8H640v-19.2l104-155.2h35.2v152h30.4v22.4z m-59.2-24v-99.2-24c-1.6 3.2-4.8 9.6-9.6 17.6L672 556.8h78.4z" fill="#1BBC9D" p-id="2197"></path><path d="M337.6 668.8h6.4v3.2h-6.4v-3.2z m400 0h9.6v3.2h-9.6v-3.2z m-184-14.4h12.8v4.8h-12.8v-4.8z m9.6 8h12.8v4.8h-12.8v-4.8z m25.6-12.8h12.8v4.8h-12.8v-4.8z m8 6.4h12.8v4.8h-12.8V656z" fill="#FFFFFF" p-id="2198"></path><path d="M523.2 516.8L704 779.2H523.2V516.8z" fill="#C8E6DC" p-id="2199"></path><path d="M633.6 771.2s-16-19.2 19.2-32 48-36.8 81.6-54.4c0 0 22.4-9.6 46.4 0s17.6 24 48 27.2c30.4 3.2 30.4 16 19.2 43.2-3.2 9.6 4.8 16 4.8 16H633.6z" fill="#EAE9E9" p-id="2200"></path><path d="M153.6 779.2s16-33.6 49.6-46.4c35.2-12.8 40-20.8 73.6-40 0 0 22.4-11.2 46.4 0 24 9.6 40 24 68.8 27.2 30.4 3.2 48 27.2 89.6 43.2 41.6 17.6 43.2 16 43.2 16H153.6z" fill="#8FCEC0" p-id="2201"></path><path d="M342.4 713.6c-30.4-3.2-44.8-17.6-68.8-27.2-17.6-8-35.2-4.8-41.6-1.6 0 0-1.6 16 25.6 20.8 27.2 4.8 48 12.8 68.8 22.4 20.8 9.6 120 48 176 46.4-24-1.6-48-6.4-70.4-16-40-19.2-59.2-41.6-89.6-44.8" fill="#8FCEC0" p-id="2202"></path><path d="M251.2 779.2L336 640l3.2 139.2h-88z" fill="#D8EDE9" p-id="2203"></path><path d="M334.4 640l96 139.2h-96V640z" fill="#C8E6DC" p-id="2204"></path><path d="M342.4 673.6h6.4v3.2h-6.4v-3.2z" fill="#FFFFFF" p-id="2205"></path><path d="M337.6 673.6h6.4v3.2h-6.4v-3.2z m14.4 1.6h6.4v3.2H352v-3.2z m-4.8 4.8h6.4v3.2h-6.4v-3.2z m-6.4 14.4h6.4v3.2h-6.4v-3.2z m3.2 4.8h6.4v3.2h-6.4v-3.2z m4.8 3.2h6.4v3.2h-6.4v-3.2z m14.4-6.4h6.4v3.2h-6.4v-3.2z m3.2 3.2h6.4v3.2h-6.4v-3.2z m51.2 41.6h6.4v1.6h-6.4v-1.6z m3.2 4.8h6.4v1.6h-6.4v-1.6z m-6.4 3.2h6.4v3.2h-6.4v-3.2z m-1.6 4.8h6.4v1.6h-6.4v-1.6z m11.2 0h6.4v1.6h-6.4v-1.6z" fill="#FFFFFF" p-id="2206"></path><path d="M446.4 752h6.4v1.6h-6.4V752z m4.8 3.2h6.4v1.6h-6.4v-1.6z" fill="#C69B5D" p-id="2207"></path><path d="M358.4 779.2l164.8-262.4v262.4H358.4z" fill="#D8EDE9" p-id="2208"></path><path d="M667.2 731.2h11.2v4.8h-11.2v-4.8z m6.4 6.4h11.2v4.8h-11.2v-4.8z" fill="#C69B5D" p-id="2209"></path><path d="M600 779.2l123.2-195.2v195.2h-123.2z" fill="#D8EDE9" p-id="2210"></path><path d="M723.2 584l134.4 195.2h-134.4V584z" fill="#C8E6DC" p-id="2211"></path><path d="M742.4 673.6h9.6v3.2h-9.6v-3.2z" fill="#FFFFFF" p-id="2212"></path><path d="M748.8 675.2h9.6v3.2h-9.6v-3.2z m19.2-4.8h9.6v3.2H768v-3.2z m6.4 4.8h9.6v3.2h-9.6v-3.2z m0 52.8h8v3.2h-8v-3.2z m4.8 6.4h8v3.2h-8v-3.2z m-8 4.8h8v3.2h-8v-3.2z m-4.8 6.4h8v3.2h-8v-3.2z m17.6 0h8v3.2H784v-3.2z m32-3.2h8v3.2H816v-3.2z m6.4 4.8h8v3.2h-8v-3.2z m-206.4-20.8h11.2v4.8h-11.2v-4.8z m6.4 8h11.2v4.8h-11.2v-4.8zM612.8 742.4h11.2v4.8h-11.2v-4.8zM606.4 750.4h11.2v4.8h-11.2v-4.8zM556.8 683.2h12.8v4.8h-12.8v-4.8z" fill="#FFFFFF" p-id="2213"></path><path d="M304 689.6s-4.8 1.6-11.2 1.6c-6.4 0-11.2 0-11.2-1.6 0 0 4.8-1.6 11.2-1.6 6.4 0 11.2 1.6 11.2 1.6" fill="#C9C7C6" p-id="2214"></path><path d="M316.8 668.8c0-1.6 0-1.6 0 0-1.6-1.6-1.6-1.6 0 0-1.6-1.6-1.6-1.6-3.2-1.6h-3.2v1.6h-1.6v6.4s-1.6 0-1.6-1.6c0 0-1.6-3.2-3.2-3.2s-1.6-1.6-3.2-3.2-4.8-1.6-4.8 0-1.6 3.2-4.8 4.8c-1.6 1.6-1.6 3.2-1.6 3.2 0 1.6-1.6 3.2-1.6 3.2h1.6v12.8h1.6s0-1.6-1.6-1.6c0 0-1.6-1.6-1.6-3.2v-3.2c0-1.6 1.6-3.2 1.6-3.2V684.8l1.6 3.2v3.2h1.6l-1.6-1.6s-1.6-1.6-1.6-3.2-1.6-1.6-1.6-3.2 0-1.6 1.6-3.2c0-1.6 1.6-3.2 1.6-3.2s1.6 0 3.2 1.6h3.2v12.8h1.6c0-1.6-1.6 0-1.6-1.6v-3.2c0-1.6 0-1.6 1.6-3.2 0-1.6 1.6-1.6 1.6 0v8h3.2v-1.6l-1.6-1.6v-3.2-1.6-1.6-3.2l1.6-1.6c8 0 6.4-3.2 8-4.8 1.6-1.6 0-1.6 0-3.2H316.8c-1.6 0 0 0 0 0s-1.6 0 0 0c-1.6 0 0 0 0 0" fill="#E4EEF2" p-id="2215"></path><path d="M288 689.6s-1.6-1.6-1.6-3.2v-3.2s1.6-1.6 1.6-3.2c0 0-1.6 1.6-1.6 3.2 0 0 0 1.6-1.6 1.6 1.6-1.6 1.6 1.6 3.2 4.8-1.6-1.6 0 0 0 0 1.6 0 0 0 0 0m4.8-1.6s-1.6-1.6-1.6-3.2-1.6-1.6-1.6-3.2 0-1.6 1.6-3.2c0-1.6 1.6-3.2 1.6-3.2 0 1.6-1.6 3.2-1.6 4.8v3.2c0 3.2 0 3.2 1.6 4.8-1.6 0-1.6 0 0 0 0 1.6 0 1.6 0 0 0 1.6 0 1.6 0 0m4.8 0v-3.2c0-1.6 0-1.6 1.6-3.2v-1.6c0 1.6 0 1.6-1.6 3.2v6.4c1.6-1.6 0-1.6 0-1.6m6.4 1.6l-1.6-1.6c-1.6-1.6 0-1.6 0-3.2v-1.6-1.6-3.2l1.6-1.6c8 0 6.4-3.2 8-4.8 1.6-1.6 0-1.6 0-3.2h1.6l1.6-1.6h-1.6-1.6V672c0 1.6-1.6 3.2-3.2 3.2h-3.2l-1.6 1.6v6.4c-1.6 3.2-1.6 4.8 0 6.4-1.6 0-1.6 0 0 0" fill="#C9C7C6" p-id="2216"></path></svg>