<?xml version="1.0" standalone="no"?><!DOCTYPE svg PUBLIC "-//W3C//DTD SVG 1.1//EN" "http://www.w3.org/Graphics/SVG/1.1/DTD/svg11.dtd"><svg t="1553738112753" class="icon" style="" viewBox="0 0 1024 1024" version="1.1" xmlns="http://www.w3.org/2000/svg" p-id="1591" xmlns:xlink="http://www.w3.org/1999/xlink" width="32" height="32"><defs><style type="text/css"></style></defs><path d="M287.29856 149.09952h-172.9024a17.24416 17.24416 0 0 0-17.30048 17.30048v691.59936a17.24416 17.24416 0 0 0 17.30048 17.30048h172.9024a17.3056 17.3056 0 0 0 17.30048-17.30048V166.4a17.24416 17.24416 0 0 0-17.30048-17.30048z m-17.19808 138.30144H183.59808a17.24416 17.24416 0 0 0-17.30048 17.30048 17.3056 17.3056 0 0 0 17.30048 17.30048h86.5024v34.60096H183.59808a17.24416 17.24416 0 0 0-17.30048 17.30048 17.3056 17.3056 0 0 0 17.30048 17.30048h86.5024v34.60096H183.59808c-9.6 0-17.30048 7.70048-17.30048 17.30048s7.70048 17.30048 17.30048 17.30048h86.5024v34.49856H183.59808a17.24416 17.24416 0 0 0-17.30048 17.30048 17.3056 17.3056 0 0 0 17.30048 17.30048h86.5024v34.60096H183.59808a17.24416 17.24416 0 0 0-17.30048 17.30048 17.3056 17.3056 0 0 0 17.30048 17.30048h86.5024v34.60096H183.59808c-9.6 0-17.30048 7.70048-17.30048 17.30048s7.70048 17.30048 17.30048 17.30048h86.5024v34.49856H183.59808a17.24416 17.24416 0 0 0-17.30048 17.30048 17.3056 17.3056 0 0 0 17.30048 17.30048h86.5024v34.60096H183.59808a17.24416 17.24416 0 0 0-17.30048 17.30048 17.3056 17.3056 0 0 0 17.30048 17.30048h86.5024v34.60096H131.70176V183.70048h138.30144v34.60096H183.59808c-9.6 0-17.30048 7.70048-17.30048 17.30048s7.70048 17.30048 17.30048 17.30048h86.5024v34.49856z" p-id="1592"></path><path d="M736.90112 857.99936H460.20096c-9.4976 0-17.30048-154.79808-17.30048-345.79968S450.69824 166.4 460.20096 166.4h276.70016c9.4976 0 17.30048 154.79808 17.30048 345.79968s-7.80288 345.79968-17.30048 345.79968z" p-id="1593"></path><path d="M909.7984 149.09952h-172.9024a17.24416 17.24416 0 0 0-17.30048 17.30048v691.59936a17.24416 17.24416 0 0 0 17.30048 17.30048h172.9024a17.3056 17.3056 0 0 0 17.30048-17.30048V166.4a17.3056 17.3056 0 0 0-17.30048-17.30048zM823.3984 300.35456a17.3056 17.3056 0 0 1 17.30048 17.30048 17.3056 17.3056 0 0 1-17.30048 17.30048 17.37216 17.37216 0 0 1-17.30048-17.30048 17.24416 17.24416 0 0 1 17.30048-17.30048z m0 242.0992a17.37216 17.37216 0 0 1-17.30048-17.30048 17.24416 17.24416 0 0 1 17.30048-17.30048 17.3056 17.3056 0 0 1 0 34.60096z m17.30048 51.79904a17.24416 17.24416 0 0 1-17.30048 17.30048 17.3056 17.3056 0 0 1-17.30048-17.30048 17.3056 17.3056 0 0 1 17.30048-17.30048c9.50272 0.1024 17.30048 7.80288 17.30048 17.30048z m-17.30048-120.99584c-9.4976 0-17.30048-7.70048-17.30048-17.30048s7.70048-17.30048 17.30048-17.30048c9.4976 0 17.30048 7.79776 17.30048 17.30048s-7.70048 17.30048-17.30048 17.30048z m0-69.20192a17.3056 17.3056 0 0 1-17.30048-17.30048 17.3056 17.3056 0 0 1 17.30048-17.30048c9.4976 0.1024 17.30048 7.79776 17.30048 17.30048a17.24416 17.24416 0 0 1-17.30048 17.30048z m-34.59584-69.09952a17.3056 17.3056 0 0 1 17.30048 17.30048 17.37216 17.37216 0 0 1-17.30048 17.30048c-9.6 0-17.30048-7.70048-17.30048-17.30048s7.70048-17.30048 17.30048-17.30048z m0 69.09952c9.4976 0.1024 17.30048 7.79776 17.30048 17.30048s-7.79776 17.30048-17.30048 17.30048a17.3056 17.3056 0 0 1-17.30048-17.30048 17.24416 17.24416 0 0 1 17.30048-17.30048z m0 69.20192a17.37216 17.37216 0 0 1 17.30048 17.30048 17.3056 17.3056 0 0 1-17.30048 17.30048 17.24416 17.24416 0 0 1-17.30048-17.30048 17.3056 17.3056 0 0 1 17.30048-17.30048z m0 69.1968a17.3056 17.3056 0 0 1 17.30048 17.30048 17.37216 17.37216 0 0 1-17.30048 17.30048c-9.6 0-17.30048-7.70048-17.30048-17.30048s7.70048-17.30048 17.30048-17.30048z m0 69.09952c9.4976 0.1024 17.30048 7.79776 17.30048 17.30048s-7.79776 17.30048-17.30048 17.30048a17.3056 17.3056 0 0 1-17.30048-17.30048 17.24416 17.24416 0 0 1 17.30048-17.30048z m0 103.80288a17.24416 17.24416 0 0 1-17.30048-17.30048 17.3056 17.3056 0 0 1 17.30048-17.30048 17.37216 17.37216 0 0 1 17.30048 17.30048 17.31072 17.31072 0 0 1-17.30048 17.30048z m34.59584-34.60096c-9.4976 0-17.30048-7.70048-17.30048-17.30048s7.70048-17.30048 17.30048-17.30048c9.4976 0 17.30048 7.79776 17.30048 17.30048s-7.70048 17.30048-17.30048 17.30048z m34.50368-34.60096a17.3056 17.3056 0 0 1-17.30048-17.30048 17.24416 17.24416 0 0 1 17.30048-17.30048c9.6 0.1024 17.30048 7.79776 17.30048 17.30048s-7.70048 17.30048-17.30048 17.30048z m0-69.09952c-9.6 0-17.30048-7.70048-17.30048-17.30048s7.70048-17.30048 17.30048-17.30048 17.30048 7.70048 17.30048 17.30048a17.3056 17.3056 0 0 1-17.30048 17.30048z m0-69.20192a17.24416 17.24416 0 0 1-17.30048-17.30048 17.3056 17.3056 0 0 1 34.60096 0 17.23904 17.23904 0 0 1-17.30048 17.30048z m0-69.1968a17.3056 17.3056 0 0 1-17.30048-17.30048 17.24416 17.24416 0 0 1 17.30048-17.30048c9.6 0.1024 17.30048 7.79776 17.30048 17.30048s-7.70048 17.30048-17.30048 17.30048z m0-69.09952c-9.6 0-17.30048-7.70048-17.30048-17.30048s7.70048-17.30048 17.30048-17.30048 17.30048 7.70048 17.30048 17.30048a17.3056 17.3056 0 0 1-17.30048 17.30048z m0-69.20192a17.24416 17.24416 0 0 1-17.30048-17.30048 17.3056 17.3056 0 0 1 34.60096 0 17.24416 17.24416 0 0 1-17.30048 17.30048zM460.20096 149.09952h-172.9024a17.24416 17.24416 0 0 0-17.30048 17.30048v691.59936a17.24416 17.24416 0 0 0 17.30048 17.30048h172.9024a17.24416 17.24416 0 0 0 17.30048-17.30048V166.4a17.24416 17.24416 0 0 0-17.30048-17.30048zM391.10144 719.69792a17.37216 17.37216 0 0 1-17.30048 17.30048 17.24416 17.24416 0 0 1-17.30048-17.30048V304.70144a17.24416 17.24416 0 0 1 17.30048-17.30048 17.3056 17.3056 0 0 1 17.30048 17.30048v414.99648z" p-id="1594"></path></svg>