<?xml version="1.0" standalone="no"?><!DOCTYPE svg PUBLIC "-//W3C//DTD SVG 1.1//EN" "http://www.w3.org/Graphics/SVG/1.1/DTD/svg11.dtd"><svg t="1553070962001" class="icon" style="" viewBox="0 0 1024 1024" version="1.1" xmlns="http://www.w3.org/2000/svg" p-id="3431" xmlns:xlink="http://www.w3.org/1999/xlink" width="32" height="32"><defs><style type="text/css"></style></defs><path d="M832 970.666667c-6.4 0-10.666667-2.133333-17.066667-6.4L725.333333 891.733333l-89.6 72.533334c-10.666667 8.533333-23.466667 8.533333-34.133333 0L512 891.733333l-89.6 72.533334c-10.666667 8.533333-23.466667 8.533333-34.133333 0l-91.733334-72.533334-91.733333 72.533334c-10.666667 8.533333-25.6 8.533333-36.266667-2.133334l-83.2-85.333333c-4.266667-4.266667-8.533333-10.666667-8.533333-19.2V157.866667c0-49.066667 42.666667-87.466667 96-87.466667h674.133333c53.333333 0 96 38.4 96 87.466667v699.733333c0 6.4-2.133333 14.933333-8.533333 19.2l-85.333333 85.333333c-2.133333 4.266667-10.666667 8.533333-17.066667 8.533334zM296.533333 832c6.4 0 12.8 2.133333 17.066667 6.4l91.733333 72.533333 89.6-72.533333c10.666667-8.533333 23.466667-8.533333 34.133334 0l89.6 72.533333 89.6-72.533333c10.666667-8.533333 23.466667-8.533333 34.133333 0l89.6 70.4 61.866667-59.733333V157.866667c0-19.2-19.2-34.133333-42.666667-34.133334H174.933333c-23.466667 0-42.666667 14.933333-42.666666 34.133334v689.066666L192 906.666667l89.6-70.4c4.266667-4.266667 10.666667-4.266667 14.933333-4.266667z" fill="" p-id="3432"></path><path d="M228.266667 403.2h569.6v53.333333H228.266667zM228.266667 253.866667h270.933333v53.333333H228.266667zM221.866667 554.666667h578.133333v53.333333H221.866667z" fill="" p-id="3433"></path></svg>