<?xml version="1.0" standalone="no"?><!DOCTYPE svg PUBLIC "-//W3C//DTD SVG 1.1//EN" "http://www.w3.org/Graphics/SVG/1.1/DTD/svg11.dtd"><svg t="1553762438069" class="icon" style="" viewBox="0 0 1024 1024" version="1.1" xmlns="http://www.w3.org/2000/svg" p-id="4698" xmlns:xlink="http://www.w3.org/1999/xlink" width="32" height="32"><defs><style type="text/css"></style></defs><path d="M855.3 189.1H168.7c-52.9 0-96 43.1-96 96v453.8c0 52.9 43.1 96 96 96h686.6c52.9 0 96-43 96-95.9V285.1c0-52.9-43.1-96-96-96z m0 48c3.8 0 7.4 0.5 10.9 1.3L546 560c-18.7 18.7-49.2 18.7-67.9 0L156.7 238.6c3.8-1 7.8-1.5 12-1.5h686.6z m48 501.9c0 26.4-21.5 47.9-48 47.9H168.7c-26.5 0-48-21.5-48-48V285.1c0-4.5 0.6-8.8 1.8-12.9L444.2 594c18.7 18.7 43.3 28.1 67.9 28.1 24.6 0 49.2-9.4 67.9-28.1l321.2-322.7c1.3 4.4 2 9 2 13.9V739z" p-id="4699"></path></svg>