<?xml version="1.0" standalone="no"?><!DOCTYPE svg PUBLIC "-//W3C//DTD SVG 1.1//EN" "http://www.w3.org/Graphics/SVG/1.1/DTD/svg11.dtd"><svg t="1553762361841" class="icon" style="" viewBox="0 0 1024 1024" version="1.1" xmlns="http://www.w3.org/2000/svg" p-id="1977" xmlns:xlink="http://www.w3.org/1999/xlink" width="32" height="32"><defs><style type="text/css"></style></defs><path d="M518.4 44.8h-32C384 57.6 320 128 307.2 236.8c0 89.6 19.2 166.4 76.8 243.2 6.4 6.4 6.4 12.8 12.8 12.8 12.8 25.6 32 44.8 32 83.2-6.4 44.8-51.2 64-83.2 76.8h-6.4c-32 12.8-64 32-83.2 44.8h-6.4c-57.6 32-115.2 70.4-128 115.2-12.8 32-6.4 57.6 6.4 83.2 25.6 44.8 96 64 147.2 70.4 76.8 12.8 166.4 12.8 236.8 12.8 89.6 0 358.4 0 390.4-89.6 6.4-19.2 6.4-64 0-76.8-19.2-64-121.6-108.8-179.2-134.4-6.4 0-12.8-6.4-19.2-6.4-38.4-19.2-89.6-38.4-102.4-76.8-12.8-51.2 19.2-89.6 44.8-121.6 6.4-12.8 19.2-25.6 19.2-32 25.6-44.8 44.8-102.4 44.8-147.2 6.4-83.2-12.8-153.6-57.6-198.4-32-32-83.2-51.2-134.4-51.2M512 1024c-76.8 0-166.4 0-249.6-19.2-57.6-12.8-140.8-32-179.2-89.6-19.2-32-25.6-70.4-12.8-115.2C89.6 736 160 691.2 224 659.2h6.4c19.2-12.8 57.6-32 89.6-44.8l12.8-6.4c25.6-12.8 44.8-19.2 51.2-38.4 0-19.2-6.4-25.6-19.2-44.8L352 512c-64-89.6-96-179.2-83.2-275.2 6.4-128 89.6-217.6 211.2-230.4 83.2-6.4 160 12.8 211.2 64 57.6 51.2 83.2 134.4 70.4 230.4C755.2 352 736 416 710.4 467.2c-12.8 6.4-19.2 19.2-32 32-19.2 32-38.4 57.6-32 83.2 6.4 19.2 57.6 32 76.8 44.8 6.4 6.4 19.2 6.4 19.2 6.4 64 25.6 172.8 76.8 204.8 160 6.4 25.6 12.8 76.8 0 108.8-38.4 108.8-256 121.6-435.2 121.6" p-id="1978"></path></svg>