<?xml version="1.0" standalone="no"?><!DOCTYPE svg PUBLIC "-//W3C//DTD SVG 1.1//EN" "http://www.w3.org/Graphics/SVG/1.1/DTD/svg11.dtd"><svg t="1553657611900" class="icon" style="" viewBox="0 0 1024 1024" version="1.1" xmlns="http://www.w3.org/2000/svg" p-id="8024" xmlns:xlink="http://www.w3.org/1999/xlink" width="32" height="32"><defs><style type="text/css"></style></defs><path d="M929.1 127.8h-609v64h609c17.4-0.3 31.4-14.5 31.4-32s-14-31.7-31.4-32zM161.7 63.5c-53 0-96 43-96 96s43 96 96 96 96-43 96-96-43-96-96-96z m0 128c-17.7 0-32-14.3-32-32s14.3-32 32-32 32 14.3 32 32-14.4 32-32 32zM929.1 447.8h-609v64h609c17.4-0.3 31.4-14.5 31.4-32s-14-31.7-31.4-32zM161.7 383.5c-53 0-96 43-96 96s43 96 96 96 96-43 96-96-43-96-96-96z m0 128c-17.7 0-32-14.3-32-32s14.3-32 32-32 32 14.3 32 32-14.4 32-32 32z" p-id="8025"></path><path d="M929.1 767.8h-609v64h609c17.4-0.3 31.4-14.5 31.4-32s-14-31.7-31.4-32zM161.7 703.5c-53 0-96 43-96 96s43 96 96 96 96-43 96-96-43-96-96-96z m0 128c-17.7 0-32-14.3-32-32s14.3-32 32-32 32 14.3 32 32-14.4 32-32 32z" p-id="8026"></path></svg>